HIERARCHY
ROOT Hips
{
	OFFSET 0.00000 0.00000 0.00000
	CHANNELS 6 Xposition Yposition Zposition Zrotation Yrotation Xrotation 
	JOINT LHipJoint
	{
		OFFSET 0 0 0
		CHANNELS 3 Zrotation Yrotation Xrotation
		JOINT LeftHip
		{
			OFFSET 1.65674 -1.80282 0.62477
			CHANNELS 3 Zrotation Yrotation Xrotation
			JOINT LeftKnee
			{
				OFFSET 2.59720 -7.13576 0.00000
				CHANNELS 3 Zrotation Yrotation Xrotation
				JOINT LeftAnkle
				{
					OFFSET 2.49236 -6.84770 0.00000
					CHANNELS 3 Zrotation Yrotation Xrotation
					JOINT LeftToe
					{
						OFFSET 0.19704 -0.54136 2.14581
						CHANNELS 3 Zrotation Yrotation Xrotation
						End Site
						{
							OFFSET 0.00000 -0.00000 1.11249
						}
					}
				}
			}
		}
	}
	JOINT RHipJoint
	{
		OFFSET 0 0 0
		CHANNELS 3 Zrotation Yrotation Xrotation
		JOINT RightHip
		{
			OFFSET -1.61070 -1.80282 0.62476
			CHANNELS 3 Zrotation Yrotation Xrotation
			JOINT RightKnee
			{
				OFFSET -2.59502 -7.12977 0.00000
				CHANNELS 3 Zrotation Yrotation Xrotation
				JOINT RightAnkle
				{
					OFFSET -2.46780 -6.78024 0.00000
					CHANNELS 3 Zrotation Yrotation Xrotation
					JOINT RightToe
					{
						OFFSET -0.23024 -0.63258 2.13368
						CHANNELS 3 Zrotation Yrotation Xrotation
						End Site
						{
							OFFSET -0.00000 -0.00000 1.11569
						}
					}
				}
			}
		}
	}
	JOINT lowerback
	{
		OFFSET 0 0 0
		CHANNELS 3 Zrotation Yrotation Xrotation
		JOINT Chest
		{
			OFFSET 0.01961 2.05450 -0.14112
			CHANNELS 3 Zrotation Yrotation Xrotation
			JOINT Chest2
			{
				OFFSET 0.01021 2.06436 -0.05921
				CHANNELS 3 Zrotation Yrotation Xrotation
				JOINT lowerneck
				{
					OFFSET 0 0 0
					CHANNELS 3 Zrotation Yrotation Xrotation
					JOINT Neck
					{
						OFFSET 0.00713 1.56711 0.14968
						CHANNELS 3 Zrotation Yrotation Xrotation
						JOINT Head
						{
							OFFSET 0.03429 1.56041 -0.10006
							CHANNELS 3 Zrotation Yrotation Xrotation
							End Site
							{
								OFFSET 0.01305 1.62560 -0.05265
							}
						}
					}
				}
				JOINT LeftCollar
				{
					OFFSET 0 0 0
					CHANNELS 3 Zrotation Yrotation Xrotation
					JOINT LeftShoulder
					{
						OFFSET 3.54205 0.90436 -0.17364
CHANNELS 3 Zrotation Xrotation Yrotation
						JOINT LeftElbow
						{
OFFSET 0 -4.865130 -0.000000
CHANNELS 3 Zrotation Xrotation Yrotation
							JOINT LeftWrist
							{
OFFSET 0 -3.355540 0.000000
CHANNELS 3 Zrotation Xrotation Yrotation
								JOINT lhand
								{
									OFFSET 0 0 0
CHANNELS 3 Zrotation Xrotation Yrotation
									JOINT LFingers
									{
OFFSET 0 -0.661170 0.000000
CHANNELS 3 Zrotation Xrotation Yrotation
										End Site
										{
OFFSET 0 -0.533060 0.000000
										}
									}
								}
								JOINT LThumb
								{
OFFSET 0 0.000000 0.000000
CHANNELS 3 Zrotation Xrotation Yrotation
									End Site
									{
OFFSET 0 -0.541200 0.541200
									}
								}
							}
						}
					}
				}
				JOINT RightCollar
				{
					OFFSET 0 0 0
					CHANNELS 3 Zrotation Yrotation Xrotation
					JOINT RightShoulder
					{
						OFFSET -3.49802 0.75994 -0.32616
CHANNELS 3 Zrotation Xrotation Yrotation
						JOINT RightElbow
						{
OFFSET 0 -5.026490 0.000000
CHANNELS 3 Zrotation Xrotation Yrotation
							JOINT RightWrist
							{
OFFSET 0 -3.364310 0.000000
CHANNELS 3 Zrotation Xrotation Yrotation
								JOINT rhand
								{
									OFFSET 0 0 0
CHANNELS 3 Zrotation Xrotation Yrotation
									JOINT RFingers
									{
OFFSET 0 -0.730410 0.000000
CHANNELS 3 Zrotation Xrotation Yrotation
										End Site
										{
OFFSET 0 -0.588870 0.000000
										}
									}
								}
								JOINT RThumb
								{
OFFSET 0 0.000000 0.000000
CHANNELS 3 Zrotation Xrotation Yrotation
									End Site
									{
OFFSET 0 -0.597860 0.597860
									}
								}
							}
						}
					}
				}
			}
		}
	}
}
MOTION
Frames: 10
Frame Time: 0.008333333333333333
10.419400 16.704800 -30.100300 -3.009100 -9.821900 -2.489700 0.000000 0.000000 0.000000 -18.044600 -10.217500 -26.249800 1.401300 7.488100 21.169900 0.233000 8.582800 -15.932400 0.292900 -3.480000 -9.618100 0.000000 0.000000 0.000000 29.129300 -3.611000 15.899100 -0.372500 -3.920100 10.851900 -0.682500 6.272700 -14.743100 -0.052700 -1.480900 4.073200 6.357100 1.572700 7.865700 1.656800 2.552300 3.472600 -2.055300 1.319400 -0.599600 1.034400 4.067100 -12.490100 -6.407300 5.612500 1.617800 -1.927500 2.547400 2.972300 -0.000000 -0.000000 0.000000 -7.126300 11.993700 11.075600 10.524100 -17.555100 1.629500 23.558300 -3.703300 -21.117500 0.000000 0.000000 0.000000 -7.125000 0.000000 0.000000 -5.275500 52.751200 1.008500 -0.000000 -0.000000 0.000000 -10.794400 -20.433900 39.631300 -27.558400 -38.706500 -9.846300 -27.168400 -25.142900 -16.644700 0.000000 0.000000 0.000000 7.125000 0.000000 -0.000000 0.433500 11.405900 0.339200
10.415004 16.692924 -29.995530 -2.908213 -9.928268 -2.608230 0.000000 0.000000 0.000000 -18.298616 -10.129459 -26.100610 1.404269 7.495751 21.192681 0.241564 8.644634 -16.114819 0.240030 -3.138628 -8.666152 0.000000 0.000000 0.000000 28.935576 -3.748314 16.473021 -0.361880 -3.864090 10.694660 -0.667313 6.230164 -14.577924 -0.029748 -1.048005 2.881510 6.206483 1.618947 7.626072 1.665307 2.571256 3.723762 -1.948989 1.342524 -0.212438 1.035656 4.114889 -12.804238 -6.424828 5.672164 1.504580 -1.925216 2.572922 2.995652 0.000000 0.000000 0.000000 -7.246257 11.605910 11.205663 10.500463 -17.518559 1.622363 23.580853 -3.512888 -21.213820 0.000000 0.000000 0.000000 -7.125000 0.000000 0.000000 -5.281895 52.856997 1.023402 0.000000 0.000000 0.000000 -10.826430 -20.831396 39.460871 -27.467790 -38.621542 -9.789719 -26.789345 -24.766700 -16.463480 0.000000 0.000000 0.000000 7.125000 0.000000 0.000000 0.666962 11.662828 0.517451
10.410565 16.682709 -29.890562 -2.810646 -10.022703 -2.702905 0.000000 0.000000 0.000000 -18.550405 -10.039687 -25.981291 1.410899 7.512682 21.243374 0.246496 8.694917 -16.236092 0.204912 -2.913830 -8.039121 0.000000 0.000000 0.000000 28.740703 -3.879497 16.970824 -0.357277 -3.839752 10.626365 -0.654736 6.236159 -14.443782 -0.011067 -0.664903 1.827139 6.070354 1.667252 7.427439 1.663711 2.600201 3.920447 -1.864587 1.367648 0.097302 1.041269 4.149537 -13.051439 -6.411634 5.710302 1.371593 -1.915851 2.590667 2.997449 0.000000 0.000000 0.000000 -7.334215 11.279322 11.346851 10.461074 -17.457526 1.610543 23.575124 -3.301048 -21.208707 0.000000 0.000000 0.000000 -7.125000 0.000000 0.000000 -5.286402 52.850563 1.023418 0.000000 0.000000 0.000000 -10.846484 -21.152393 39.300971 -27.356334 -38.516704 -9.720267 -26.525601 -24.460302 -16.345109 0.000000 0.000000 0.000000 7.125000 0.000000 0.000000 0.830083 11.833195 0.642233
10.405997 16.677513 -29.784993 -2.723119 -10.081054 -2.725458 0.000000 0.000000 0.000000 -18.795457 -9.944681 -25.952287 1.428598 7.557673 21.378461 0.240444 8.710276 -16.172488 0.223468 -3.041494 -8.394481 0.000000 0.000000 0.000000 28.542354 -3.992146 17.238486 -0.370866 -3.911178 10.826997 -0.650055 6.388889 -14.403472 -0.005300 -0.432354 1.187959 5.978031 1.721778 7.352759 1.631566 2.659352 3.952420 -1.846431 1.398822 0.172953 1.060053 4.144456 -13.096259 -6.305552 5.683353 1.178840 -1.885077 2.584900 2.934073 0.000000 0.000000 0.000000 -7.325422 11.137783 11.521676 10.374061 -17.322439 1.584565 23.483886 -3.024422 -20.896910 0.000000 0.000000 0.000000 -7.125000 0.000000 0.000000 -5.285203 52.504795 0.978427 0.000000 0.000000 0.000000 -10.830326 -21.242089 39.172907 -27.181852 -38.351756 -9.611900 -26.610502 -24.364953 -16.416763 0.000000 0.000000 0.000000 7.125000 0.000000 0.000000 0.780524 11.741843 0.605350
10.401259 16.673396 -29.677438 -2.608432 -10.133388 -2.712989 0.000000 0.000000 0.000000 -19.083024 -9.786840 -25.984528 1.457196 7.629370 21.594093 0.231128 8.654257 -15.984435 0.265438 -3.299653 -9.115526 0.000000 0.000000 0.000000 28.318463 -4.079934 17.513726 -0.380311 -3.960496 10.965533 -0.637625 6.486815 -14.274843 -0.001832 -0.264372 0.726328 5.878273 1.770344 7.280689 1.568373 2.713252 3.926043 -1.857365 1.425001 0.187331 1.140253 4.138494 -13.061755 -6.206365 5.645790 0.975246 -1.869543 2.575444 2.854577 0.000000 0.000000 0.000000 -7.277748 11.066345 11.660543 10.296924 -17.202620 1.561652 23.431331 -2.821188 -20.551142 0.000000 0.000000 0.000000 -7.125000 0.000000 0.000000 -5.236722 52.130050 0.921885 0.000000 0.000000 0.000000 -10.758485 -21.242018 39.107109 -27.012137 -38.190498 -9.506769 -26.764168 -24.342287 -16.509817 0.000000 0.000000 0.000000 7.125000 0.000000 0.000000 0.687714 11.616292 0.534920
10.396349 16.670370 -29.567872 -2.466265 -10.179635 -2.665086 0.000000 0.000000 0.000000 -19.413605 -9.565425 -26.078735 1.496820 7.728088 21.891216 0.218510 8.526021 -15.670469 0.331097 -3.689842 -10.206557 0.000000 0.000000 0.000000 28.068729 -4.142567 17.796633 -0.385564 -3.987445 11.041241 -0.617356 6.529294 -14.056853 -0.000690 -0.161715 0.444335 5.770991 1.812879 7.211261 1.473767 2.761840 3.840628 -1.897731 1.446126 0.139713 1.282591 4.131643 -12.946994 -6.114157 5.597487 0.760682 -1.869429 2.562255 2.758772 0.000000 0.000000 0.000000 -7.190735 11.065831 11.763029 10.229780 -17.098250 1.541840 23.417913 -2.692210 -20.171002 0.000000 0.000000 0.000000 -7.125000 0.000000 0.000000 -5.140402 51.725988 0.853656 0.000000 0.000000 0.000000 -10.630307 -21.151123 39.104312 -26.847246 -38.032972 -9.404911 -26.987410 -24.393159 -16.624521 0.000000 0.000000 0.000000 7.125000 0.000000 0.000000 0.551142 11.456140 0.430550
10.390417 16.660745 -29.456859 -2.446618 -10.260024 -2.591044 0.000000 0.000000 0.000000 -19.574072 -9.417913 -26.139268 1.556240 7.871760 22.325929 0.212873 8.361515 -15.410823 0.368277 -3.895996 -10.784523 0.000000 0.000000 0.000000 27.948581 -4.216396 17.987969 -0.401374 -4.066543 11.264032 -0.595810 6.608512 -13.825837 -0.000655 0.009141 -0.025098 5.733185 1.837919 7.081724 1.431522 2.786631 3.770837 -1.918345 1.457332 0.140925 1.415521 4.148589 -12.829125 -6.047746 5.586137 0.571108 -1.873785 2.565498 2.673566 0.000000 0.000000 0.000000 -7.155701 11.067701 11.758747 10.209848 -17.067230 1.535949 23.383764 -2.793030 -20.048417 0.000000 0.000000 0.000000 -7.125000 0.000000 0.000000 -5.139442 51.590463 0.836002 0.000000 0.000000 0.000000 -10.488080 -21.054437 39.203046 -26.712623 -37.903586 -9.322083 -27.123084 -24.367999 -16.587672 0.000000 0.000000 0.000000 7.125000 0.000000 0.000000 0.457737 11.475766 0.357598
10.384137 16.648869 -29.345352 -2.468770 -10.352062 -2.508085 0.000000 0.000000 0.000000 -19.676501 -9.295615 -26.188313 1.622413 8.030770 22.807583 0.209619 8.184634 -15.169710 0.395739 -4.039362 -11.187444 0.000000 0.000000 0.000000 27.872644 -4.294046 18.148064 -0.420786 -4.163433 11.537004 -0.573829 6.700263 -13.590377 -0.000998 0.203265 -0.558481 5.719082 1.856988 6.931677 1.407143 2.803303 3.706377 -1.932219 1.465154 0.158795 1.545241 4.173653 -12.710195 -5.990137 5.587393 0.390059 -1.879666 2.574348 2.591977 0.000000 0.000000 0.000000 -7.138401 11.070384 11.718038 10.206022 -17.061235 1.534807 23.342541 -2.972252 -20.013703 0.000000 0.000000 0.000000 -7.125000 0.000000 0.000000 -5.171015 51.546557 0.835602 0.000000 0.000000 0.000000 -10.341060 -20.955777 39.336420 -26.588327 -37.783801 -9.245746 -27.228881 -24.316899 -16.499118 0.000000 0.000000 0.000000 7.125000 0.000000 0.000000 0.379060 11.556727 0.295364
10.378140 16.629785 -29.233448 -2.623858 -10.411688 -2.377446 0.000000 0.000000 0.000000 -19.596669 -9.362162 -26.201939 1.705785 8.222304 23.392487 0.206308 8.067466 -14.992510 0.349299 -3.791018 -10.490217 0.000000 0.000000 0.000000 27.943833 -4.383785 18.267290 -0.444456 -4.276387 11.855782 -0.566775 6.829762 -13.526449 -0.011728 0.605589 -1.664415 5.783538 1.880769 6.626049 1.473127 2.816398 3.707249 -1.888083 1.476382 0.330206 1.499399 4.168464 -12.667951 -5.862257 5.572926 0.230466 -1.830885 2.574854 2.521911 0.000000 0.000000 0.000000 -7.208457 10.981342 11.713883 10.190391 -17.036849 1.530259 23.282928 -2.950312 -20.180094 0.000000 0.000000 0.000000 -7.125000 0.000000 0.000000 -5.278252 51.711702 0.874765 0.000000 0.000000 0.000000 -10.297799 -20.927841 39.371711 -26.441440 -37.641027 -9.156015 -27.314472 -24.312059 -16.406249 0.000000 0.000000 0.000000 7.125000 0.000000 0.000000 0.313097 11.645691 0.243518
10.371702 16.609231 -29.121638 -2.721171 -10.443564 -2.275750 0.000000 0.000000 0.000000 -19.585131 -9.425732 -26.214483 1.792431 8.418561 23.993448 0.193463 8.012075 -14.739726 0.311264 -3.586554 -9.916327 0.000000 0.000000 0.000000 27.967736 -4.468677 18.431324 -0.466405 -4.380304 12.149181 -0.564313 6.924633 -13.509811 -0.029932 1.056512 -2.904978 5.780420 1.895876 6.347329 1.527962 2.816434 3.710168 -1.818359 1.479759 0.484810 1.432377 4.163776 -12.628180 -5.712155 5.560944 0.061604 -1.770948 2.577348 2.447617 0.000000 0.000000 0.000000 -7.285387 10.896554 11.727278 10.180980 -17.022180 1.527521 23.203004 -2.905822 -20.319665 0.000000 0.000000 0.000000 -7.125000 0.000000 0.000000 -5.398349 51.844891 0.912138 0.000000 0.000000 0.000000 -10.266636 -20.899975 39.404665 -26.285067 -37.488584 -9.060661 -27.364263 -24.335246 -16.330496 0.000000 0.000000 0.000000 7.125000 0.000000 0.000000 0.272581 11.721372 0.211519
